<svg id="visual" viewBox="0 0 900 600" width="900" height="600" xmlns="http://www.w3.org/2000/svg" xmlns:xlink="http://www.w3.org/1999/xlink" version="1.1"><rect x="0" y="0" width="900" height="600" fill="#F7770F"></rect><path d="M0 358L21.5 359.8C43 361.7 86 365.3 128.8 376.7C171.7 388 214.3 407 257.2 406.5C300 406 343 386 385.8 389.3C428.7 392.7 471.3 419.3 514.2 430.7C557 442 600 438 642.8 427C685.7 416 728.3 398 771.2 391.7C814 385.3 857 390.7 878.5 393.3L900 396L900 601L878.5 601C857 601 814 601 771.2 601C728.3 601 685.7 601 642.8 601C600 601 557 601 514.2 601C471.3 601 428.7 601 385.8 601C343 601 300 601 257.2 601C214.3 601 171.7 601 128.8 601C86 601 43 601 21.5 601L0 601Z" fill="#fcaf3c"></path><path d="M0 471L21.5 463.3C43 455.7 86 440.3 128.8 430.7C171.7 421 214.3 417 257.2 422.2C300 427.3 343 441.7 385.8 439C428.7 436.3 471.3 416.7 514.2 419.5C557 422.3 600 447.7 642.8 447C685.7 446.3 728.3 419.7 771.2 406.7C814 393.7 857 394.3 878.5 394.7L900 395L900 601L878.5 601C857 601 814 601 771.2 601C728.3 601 685.7 601 642.8 601C600 601 557 601 514.2 601C471.3 601 428.7 601 385.8 601C343 601 300 601 257.2 601C214.3 601 171.7 601 128.8 601C86 601 43 601 21.5 601L0 601Z" fill="#ff9e43"></path><path d="M0 439L21.5 446.7C43 454.3 86 469.7 128.8 470.7C171.7 471.7 214.3 458.3 257.2 456.2C300 454 343 463 385.8 462C428.7 461 471.3 450 514.2 455.8C557 461.7 600 484.3 642.8 485.5C685.7 486.7 728.3 466.3 771.2 461.3C814 456.3 857 466.7 878.5 471.8L900 477L900 601L878.5 601C857 601 814 601 771.2 601C728.3 601 685.7 601 642.8 601C600 601 557 601 514.2 601C471.3 601 428.7 601 385.8 601C343 601 300 601 257.2 601C214.3 601 171.7 601 128.8 601C86 601 43 601 21.5 601L0 601Z" fill="#ff8e4b"></path><path d="M0 482L21.5 484.2C43 486.3 86 490.7 128.8 493.8C171.7 497 214.3 499 257.2 503C300 507 343 513 385.8 517.8C428.7 522.7 471.3 526.3 514.2 520.3C557 514.3 600 498.7 642.8 494.2C685.7 489.7 728.3 496.3 771.2 497C814 497.7 857 492.3 878.5 489.7L900 487L900 601L878.5 601C857 601 814 601 771.2 601C728.3 601 685.7 601 642.8 601C600 601 557 601 514.2 601C471.3 601 428.7 601 385.8 601C343 601 300 601 257.2 601C214.3 601 171.7 601 128.8 601C86 601 43 601 21.5 601L0 601Z" fill="#ff7e55"></path><path d="M0 550L21.5 553.5C43 557 86 564 128.8 566.7C171.7 569.3 214.3 567.7 257.2 564.8C300 562 343 558 385.8 553.7C428.7 549.3 471.3 544.7 514.2 540.2C557 535.7 600 531.3 642.8 536.7C685.7 542 728.3 557 771.2 557.2C814 557.3 857 542.7 878.5 535.3L900 528L900 601L878.5 601C857 601 814 601 771.2 601C728.3 601 685.7 601 642.8 601C600 601 557 601 514.2 601C471.3 601 428.7 601 385.8 601C343 601 300 601 257.2 601C214.3 601 171.7 601 128.8 601C86 601 43 601 21.5 601L0 601Z" fill="#ff6f61"></path></svg>